<svg width="6" height="4" viewBox="0 0 6 4" fill="none" xmlns="http://www.w3.org/2000/svg">
<path opacity="0.2" d="M2.43499 3.85231C2.40599 3.82971 2.28199 3.74437 2.17999 3.66488C1.53849 3.19883 0.488488 1.98305 0.167988 1.34671C0.116488 1.25007 0.00748828 1.00575 0.000488281 0.875207C0.000488281 0.750122 0.0364883 0.630882 0.109488 0.517097C0.211488 0.375256 0.371988 0.261471 0.561488 0.199123C0.692988 0.158987 1.08649 0.0966391 1.09349 0.0966391C1.52399 0.0342913 2.22349 0 2.99649 0C3.73299 0 4.40399 0.0342913 4.84099 0.0853385C4.84799 0.0911836 5.33699 0.153531 5.50449 0.221724C5.81049 0.34681 6.00049 0.591135 6.00049 0.852606V0.875207C5.99299 1.04549 5.80299 1.4036 5.79599 1.4036C5.47499 2.00565 4.47649 3.19338 3.81299 3.67073C3.81299 3.67073 3.64249 3.80516 3.53599 3.86361C3.38299 3.9548 3.19349 4 3.00399 4C2.79249 4 2.59549 3.94895 2.43499 3.85231Z" fill="#030229"/>
</svg>
