<svg width="25" height="25" viewBox="0 0 25 25" fill="none" xmlns="http://www.w3.org/2000/svg">
<path d="M12.5 23.4375L5.90938 15.6648C5.81781 15.5481 5.72718 15.4307 5.63751 15.3125C4.51171 13.8295 3.90353 12.0181 3.90626 10.1562C3.90626 7.87705 4.81167 5.69119 6.42331 4.07955C8.03495 2.46791 10.2208 1.5625 12.5 1.5625C14.7792 1.5625 16.9651 2.46791 18.5767 4.07955C20.1884 5.69119 21.0938 7.87705 21.0938 10.1562C21.0965 12.0173 20.4886 13.8278 19.3633 15.3102L19.3625 15.3125C19.3625 15.3125 19.1281 15.6203 19.093 15.6617L12.5 23.4375ZM6.88438 14.3711C6.88595 14.3711 7.0672 14.6117 7.1086 14.6633L12.5 21.0219L17.8984 14.6547C17.9328 14.6117 18.1156 14.3695 18.1164 14.3688C19.0361 13.1571 19.5331 11.6774 19.5313 10.1562C19.5313 8.29145 18.7905 6.50302 17.4719 5.18441C16.1532 3.86579 14.3648 3.125 12.5 3.125C10.6352 3.125 8.84678 3.86579 7.52816 5.18441C6.20955 6.50302 5.46876 8.29145 5.46876 10.1562C5.46712 11.6783 5.96468 13.1589 6.88517 14.3711H6.88438Z" fill="#525252"/>
<path d="M16.4062 14.0625H14.8438V7.8125H10.1562V14.0625H8.59375V7.8125C8.59416 7.39823 8.75892 7.00104 9.05185 6.7081C9.34479 6.41517 9.74198 6.25041 10.1562 6.25H14.8438C15.258 6.25041 15.6552 6.41517 15.9481 6.7081C16.2411 7.00104 16.4058 7.39823 16.4062 7.8125V14.0625Z" fill="#525252"/>
<path d="M11.7188 12.5H13.2812V14.0625H11.7188V12.5ZM11.7188 9.375H13.2812V10.9375H11.7188V9.375Z" fill="#525252"/>
</svg>
