<svg width="29" height="29" viewBox="0 0 29 29" fill="none" xmlns="http://www.w3.org/2000/svg">
<path d="M27.5 14.25C27.5 6.9349 21.5651 1 14.25 1C6.9349 1 1 6.9349 1 14.25C1 21.5651 6.9349 27.5 14.25 27.5C21.5651 27.5 27.5 21.5651 27.5 14.25Z" stroke="#53B9EA" stroke-width="2" stroke-miterlimit="10"/>
<path d="M19.8503 13.4986H10.4216L13.3074 10.0657C13.4424 9.9049 13.5073 9.6976 13.4879 9.4894C13.4685 9.28121 13.3664 9.08916 13.2041 8.95552C13.0417 8.82187 12.8324 8.75757 12.6222 8.77677C12.412 8.79596 12.2181 8.89708 12.0831 9.05787L8.10814 13.782C8.0814 13.8196 8.05749 13.8591 8.03659 13.9001C8.03659 13.9395 8.03659 13.9631 7.98094 14.0025C7.94491 14.0928 7.92604 14.1889 7.92529 14.2859C7.92604 14.383 7.94491 14.4791 7.98094 14.5694C7.98094 14.6087 7.98094 14.6324 8.03659 14.6717C8.05749 14.7128 8.0814 14.7523 8.10814 14.7898L12.0831 19.514C12.1579 19.6029 12.2515 19.6743 12.3573 19.7233C12.4631 19.7723 12.5785 19.7976 12.6953 19.7974C12.881 19.7978 13.0611 19.7337 13.2041 19.6163C13.2846 19.5502 13.3511 19.4691 13.3999 19.3775C13.4487 19.2859 13.4787 19.1856 13.4883 19.0825C13.4979 18.9794 13.4869 18.8754 13.4559 18.7765C13.4248 18.6776 13.3744 18.5857 13.3074 18.5062L10.4216 15.0733H19.8503C20.0611 15.0733 20.2634 14.9903 20.4124 14.8427C20.5615 14.695 20.6453 14.4948 20.6453 14.2859C20.6453 14.0771 20.5615 13.8768 20.4124 13.7292C20.2634 13.5815 20.0611 13.4986 19.8503 13.4986Z" fill="#53B9EA"/>
</svg>
