<svg width="7" height="9" viewBox="0 0 7 9" fill="none" xmlns="http://www.w3.org/2000/svg">
<path d="M5.9887 5.04019C6.10084 4.93476 6.16392 4.79174 6.16406 4.64255V4.35745C6.16223 4.20859 6.0994 4.06614 5.9887 3.95981L1.89148 0.110963C1.81665 0.0399461 1.71478 0 1.6085 0C1.50223 0 1.40036 0.0399461 1.32553 0.110963L0.759568 0.64365C0.684587 0.712797 0.642334 0.80744 0.642334 0.906242C0.642334 1.00504 0.684587 1.09969 0.759568 1.16883L4.30677 4.5L0.759568 7.83117C0.684115 7.9016 0.641674 7.99749 0.641674 8.09751C0.641674 8.19753 0.684115 8.29342 0.759568 8.36385L1.32553 8.88904C1.40036 8.96005 1.50223 9 1.6085 9C1.71478 9 1.81665 8.96005 1.89148 8.88904L5.9887 5.04019Z" fill="#53B9EA"/>
</svg>
