<svg width="44" height="43" viewBox="0 0 44 43" fill="none" xmlns="http://www.w3.org/2000/svg">
<rect opacity="0.15" x="0.905762" y="0.802002" width="42.1887" height="42.1979" rx="21.0944" fill="#A5A5A5"/>
<rect x="28.7803" y="0.048584" width="11.3005" height="11.303" rx="5.65027" fill="#53B9EA"/>
<path d="M21.9998 31.9481C23.1048 31.9481 24.0088 31.0438 24.0088 29.9387H19.9908C19.9908 30.4716 20.2025 30.9827 20.5792 31.3595C20.956 31.7364 21.467 31.9481 21.9998 31.9481ZM28.0268 25.9198V20.8963C28.0268 17.8118 26.3794 15.2297 23.5066 14.5465V13.8633C23.5066 13.0294 22.8335 12.3562 21.9998 12.3562C21.1661 12.3562 20.4931 13.0294 20.4931 13.8633V14.5465C17.6102 15.2297 15.9729 17.8017 15.9729 20.8963V25.9198L13.9639 27.9292V28.9339H30.0358V27.9292L28.0268 25.9198Z" fill="#828282"/>
</svg>
