<svg width="11" height="11" viewBox="0 0 11 11" fill="none" xmlns="http://www.w3.org/2000/svg">
<path d="M10.8193 9.95179L8.74218 7.8808C9.41235 7.02701 9.77598 5.9727 9.77463 4.88732C9.77463 3.9207 9.48799 2.97578 8.95097 2.17207C8.41394 1.36836 7.65065 0.741936 6.75761 0.372027C5.86457 0.00211758 4.88189 -0.0946675 3.93385 0.0939106C2.9858 0.282489 2.11497 0.74796 1.43146 1.43146C0.74796 2.11497 0.282489 2.9858 0.0939106 3.93385C-0.0946675 4.88189 0.00211758 5.86457 0.372027 6.75761C0.741936 7.65065 1.36836 8.41394 2.17207 8.95097C2.97578 9.48799 3.9207 9.77463 4.88732 9.77463C5.9727 9.77598 7.02701 9.41235 7.8808 8.74218L9.95179 10.8193C10.0086 10.8766 10.0762 10.922 10.1506 10.953C10.225 10.984 10.3049 11 10.3855 11C10.4662 11 10.546 10.984 10.6205 10.953C10.6949 10.922 10.7625 10.8766 10.8193 10.8193C10.8766 10.7625 10.922 10.6949 10.953 10.6205C10.984 10.546 11 10.4662 11 10.3855C11 10.3049 10.984 10.225 10.953 10.1506C10.922 10.0762 10.8766 10.0086 10.8193 9.95179ZM1.22183 4.88732C1.22183 4.16235 1.43681 3.45367 1.83958 2.85088C2.24234 2.2481 2.81482 1.77828 3.4846 1.50085C4.15438 1.22342 4.89138 1.15083 5.60242 1.29226C6.31345 1.4337 6.96658 1.7828 7.47921 2.29543C7.99183 2.80805 8.34094 3.46118 8.48237 4.17221C8.6238 4.88325 8.55121 5.62026 8.27378 6.29004C7.99635 6.95982 7.52654 7.53229 6.92375 7.93505C6.32096 8.33782 5.61228 8.5528 4.88732 8.5528C3.91517 8.5528 2.98284 8.16662 2.29543 7.47921C1.60801 6.79179 1.22183 5.85946 1.22183 4.88732Z" fill="#BBBBBB"/>
</svg>
