<svg width="15" height="16" viewBox="0 0 15 16" fill="none" xmlns="http://www.w3.org/2000/svg">
<path d="M7.5 0C6.67591 0 5.87033 0.246943 5.18512 0.709602C4.49992 1.17226 3.96587 1.82985 3.6505 2.59923C3.33514 3.3686 3.25262 4.2152 3.41339 5.03196C3.57417 5.84872 3.971 6.59897 4.55372 7.18782C5.13644 7.77667 5.87887 8.17768 6.68712 8.34015C7.49538 8.50261 8.33316 8.41923 9.09451 8.10055C9.85587 7.78186 10.5066 7.24219 10.9645 6.54977C11.4223 5.85735 11.6667 5.04329 11.6667 4.21053C11.6667 3.09383 11.2277 2.02286 10.4463 1.23323C9.66488 0.443608 8.60507 0 7.5 0ZM7.5 6.73684C7.00555 6.73684 6.5222 6.58868 6.11107 6.31108C5.69995 6.03349 5.37952 5.63893 5.1903 5.17731C5.00108 4.71568 4.95157 4.20772 5.04804 3.71767C5.1445 3.22761 5.3826 2.77746 5.73223 2.42415C6.08186 2.07084 6.52732 1.83023 7.01227 1.73275C7.49723 1.63527 7.99989 1.6853 8.45671 1.87652C8.91352 2.06773 9.30397 2.39153 9.57867 2.80698C9.85338 3.22243 10 3.71087 10 4.21053C10 4.88055 9.73661 5.52313 9.26777 5.9969C8.79893 6.47068 8.16304 6.73684 7.5 6.73684ZM15 16V15.1579C15 13.5945 14.3854 12.0952 13.2915 10.9897C12.1975 9.88421 10.7138 9.26316 9.16667 9.26316H5.83333C4.28624 9.26316 2.80251 9.88421 1.70854 10.9897C0.614581 12.0952 0 13.5945 0 15.1579V16H1.66667V15.1579C1.66667 14.0412 2.10565 12.9702 2.88705 12.1806C3.66846 11.391 4.72826 10.9474 5.83333 10.9474H9.16667C10.2717 10.9474 11.3315 11.391 12.1129 12.1806C12.8943 12.9702 13.3333 14.0412 13.3333 15.1579V16H15Z" fill="#525252"/>
</svg>
