<svg width="24" height="24" viewBox="0 0 24 24" fill="none" xmlns="http://www.w3.org/2000/svg">
<path d="M12.2807 2.45614C12.4707 2.45614 12.6529 2.54039 12.7873 2.69034C12.9216 2.8403 12.9971 3.04368 12.9971 3.25575V5.65458C12.9971 5.86665 12.9216 6.07003 12.7873 6.21999C12.6529 6.36995 12.4707 6.45419 12.2807 6.45419C12.0907 6.45419 11.9085 6.36995 11.7742 6.21999C11.6398 6.07003 11.5643 5.86665 11.5643 5.65458V3.25575C11.5643 3.04368 11.6398 2.8403 11.7742 2.69034C11.9085 2.54039 12.0907 2.45614 12.2807 2.45614ZM6.16573 5.22599C6.30007 5.07609 6.48225 4.99187 6.67221 4.99187C6.86217 4.99187 7.04435 5.07609 7.17869 5.22599L8.48965 6.68768C8.62417 6.83782 8.69974 7.04146 8.69974 7.2538C8.69974 7.46614 8.62417 7.66978 8.48965 7.81992C8.35514 7.97007 8.17269 8.05442 7.98246 8.05442C7.79223 8.05442 7.60978 7.97007 7.47527 7.81992L6.16573 6.35664C6.03143 6.20669 5.95599 6.00334 5.95599 5.79131C5.95599 5.57929 6.03143 5.37594 6.16573 5.22599ZM3.68421 12.0515C3.68421 11.8394 3.75969 11.636 3.89403 11.486C4.02838 11.3361 4.21059 11.2518 4.40059 11.2518H6.67293C6.86292 11.2518 7.04513 11.3361 7.17948 11.486C7.31383 11.636 7.3893 11.8394 7.3893 12.0515C7.3893 12.2635 7.31383 12.4669 7.17948 12.6169C7.04513 12.7668 6.86292 12.8511 6.67293 12.8511H4.40059C4.21059 12.8511 4.02838 12.7668 3.89403 12.6169C3.75969 12.4669 3.68421 12.2635 3.68421 12.0515ZM17.2953 12.0515C17.2953 11.8394 17.3708 11.636 17.5051 11.486C17.6395 11.3361 17.8217 11.2518 18.0117 11.2518H20.1608C20.3508 11.2518 20.533 11.3361 20.6674 11.486C20.8017 11.636 20.8772 11.8394 20.8772 12.0515C20.8772 12.2635 20.8017 12.4669 20.6674 12.6169C20.533 12.7668 20.3508 12.8511 20.1608 12.8511H18.0117C17.8217 12.8511 17.6395 12.7668 17.5051 12.6169C17.3708 12.4669 17.2953 12.2635 17.2953 12.0515ZM18.3756 5.26117C18.2764 5.15096 18.1436 5.08649 18.0037 5.08056C17.8638 5.07463 17.727 5.12769 17.6206 5.22919L11.6317 10.948C11.4937 11.0798 11.382 11.2423 11.3036 11.4252C11.2252 11.608 11.1818 11.8071 11.1764 12.0097C11.1709 12.2123 11.2034 12.4139 11.2718 12.6017C11.3403 12.7895 11.443 12.9592 11.5736 13.1001C11.7042 13.2409 11.8597 13.3497 12.0302 13.4196C12.2007 13.4895 12.3823 13.5188 12.5636 13.5058C12.7448 13.4927 12.9215 13.4375 13.0826 13.3438C13.2436 13.2501 13.3853 13.1198 13.4985 12.9614L18.4186 6.08957C18.5042 5.96997 18.5473 5.81935 18.5396 5.66651C18.532 5.51367 18.4741 5.36936 18.3771 5.26117H18.3756Z" fill="#343434"/>
<path fill-rule="evenodd" clip-rule="evenodd" d="M9.71849 23.1681C8.20796 22.9123 6.7626 22.3615 5.46494 21.5472C4.16728 20.7328 3.04273 19.6709 2.15549 18.4219C0.363642 15.8996 -0.35279 12.7687 0.163805 9.71818C0.6804 6.66763 2.3877 3.94722 4.91013 2.15543C7.43256 0.36363 10.5635 -0.352779 13.6141 0.1638C16.665 0.680379 19.3857 2.38771 21.1776 4.91019C22.9696 7.43267 23.6861 10.5637 23.1695 13.6144C22.653 16.6652 20.9456 19.3858 18.423 21.1777C15.9004 22.9696 12.7693 23.6861 9.71849 23.1696V23.1681ZM2.91715 16.9239C5.57599 15.3855 8.59446 14.5777 11.6663 14.5825C14.8534 14.5825 17.8422 15.4354 20.4155 16.9239C21.3455 15.3754 21.8478 13.6077 21.8711 11.8016C21.8945 9.99542 21.438 8.21542 20.5483 6.64339C19.6586 5.07135 18.3676 3.76361 16.8072 2.85373C15.2467 1.94384 13.4727 1.46442 11.6663 1.46442C9.85994 1.46442 8.08593 1.94384 6.52547 2.85373C4.96501 3.76361 3.67402 5.07135 2.78434 6.64339C1.89466 8.21542 1.43817 9.99542 1.4615 11.8016C1.48484 13.6077 1.98715 15.3754 2.91715 16.9239Z" fill="#343434"/>
</svg>
