<svg width="26" height="27" viewBox="0 0 26 27" fill="none" xmlns="http://www.w3.org/2000/svg">
<path d="M19.6945 11.4795C19.6945 11.8937 20.0302 12.2295 20.4445 12.2295C20.8587 12.2295 21.1945 11.8937 21.1945 11.4795H19.6945ZM12.1204 1C12.1204 0.585786 11.7846 0.25 11.3704 0.25C10.9562 0.25 10.6204 0.585786 10.6204 1H12.1204ZM24.3333 25.8889V26.6389C24.7476 26.6389 25.0833 26.3031 25.0833 25.8889H24.3333ZM24.3333 14.0994H25.0833C25.0833 13.6852 24.7476 13.3494 24.3333 13.3494V14.0994ZM20.4445 14.0994V13.3494C20.0302 13.3494 19.6945 13.6852 19.6945 14.0994H20.4445ZM1 25.8889H0.25C0.25 26.3031 0.585786 26.6389 1 26.6389L1 25.8889ZM1 20.6491L0.508964 20.0822C0.344495 20.2247 0.25 20.4315 0.25 20.6491H1ZM5.53704 16.7193L5.93753 16.0852C5.65802 15.9087 5.29589 15.936 5.046 16.1524L5.53704 16.7193ZM10.7222 19.9942L10.3217 20.6283C10.5664 20.7828 10.8781 20.7828 11.1227 20.6283L10.7222 19.9942ZM15.9074 16.7193L16.3464 16.1112C16.0981 15.932 15.7658 15.9217 15.5069 16.0852L15.9074 16.7193ZM23.5833 11.4795C23.5833 11.8937 23.9191 12.2295 24.3333 12.2295C24.7476 12.2295 25.0833 11.8937 25.0833 11.4795H23.5833ZM19.1482 3.61988V2.86988C18.7522 2.86988 18.4245 3.17765 18.3996 3.5728C18.3748 3.96794 18.6614 4.31435 19.0542 4.36397L19.1482 3.61988ZM25.0833 1C25.0833 0.585786 24.7476 0.25 24.3333 0.25C23.9191 0.25 23.5833 0.585786 23.5833 1H25.0833ZM21.1945 11.4795C21.1945 9.57565 19.3562 8.10965 16.5556 8.10965V9.60965C18.9401 9.60965 19.6945 10.7635 19.6945 11.4795H21.1945ZM16.5556 8.10965H15.2593V9.60965H16.5556V8.10965ZM15.2593 8.10965C14.4293 8.10965 13.6318 7.77656 13.0425 7.18109L11.9763 8.23618C12.8456 9.11467 14.0264 9.60965 15.2593 9.60965V8.10965ZM13.0425 7.18109C12.453 6.58534 12.1204 5.77569 12.1204 4.92983H10.6204C10.6204 6.16847 11.1072 7.35795 11.9763 8.23618L13.0425 7.18109ZM12.1204 4.92983V1H10.6204V4.92983H12.1204ZM20.4445 26.6389H24.3333V25.1389H20.4445V26.6389ZM25.0833 25.8889V14.0994H23.5833V25.8889H25.0833ZM24.3333 13.3494H20.4445V14.8494H24.3333V13.3494ZM19.6945 14.0994V19.9942H21.1945V14.0994H19.6945ZM19.6945 19.9942V25.8889H21.1945V19.9942H19.6945ZM20.4445 25.1389H1V26.6389H20.4445V25.1389ZM1.75 25.8889V20.6491H0.25V25.8889H1.75ZM1.49104 21.216L6.02807 17.2862L5.046 16.1524L0.508964 20.0822L1.49104 21.216ZM5.13654 17.3534L10.3217 20.6283L11.1227 19.36L5.93753 16.0852L5.13654 17.3534ZM11.1227 20.6283L16.3079 17.3534L15.5069 16.0852L10.3217 19.36L11.1227 20.6283ZM15.4685 17.3274L20.0055 20.6023L20.8834 19.386L16.3464 16.1112L15.4685 17.3274ZM25.0833 11.4795C25.0833 7.36964 23.7168 5.15891 22.1938 4.00461C21.4491 3.44023 20.7036 3.15741 20.142 3.01554C19.8609 2.94451 19.6235 2.9082 19.4517 2.88959C19.3656 2.88028 19.2956 2.87535 19.2442 2.87276C19.2185 2.87146 19.1975 2.87074 19.1814 2.87035C19.1733 2.87015 19.1665 2.87003 19.1609 2.86997C19.1582 2.86993 19.1557 2.86991 19.1536 2.8699C19.1525 2.86989 19.1515 2.86989 19.1506 2.86989C19.1502 2.86989 19.1496 2.86988 19.1493 2.86988C19.1487 2.86988 19.1482 2.86988 19.1482 3.61988C19.1482 4.36988 19.1476 4.36988 19.1471 4.36988C19.147 4.36988 19.1465 4.36988 19.1462 4.36988C19.1456 4.36988 19.1451 4.36988 19.1446 4.36987C19.1437 4.36987 19.1432 4.36986 19.1429 4.36986C19.1423 4.36985 19.1429 4.36986 19.1447 4.3699C19.1482 4.36999 19.1563 4.37023 19.1685 4.37085C19.1931 4.37209 19.2345 4.37484 19.2902 4.38088C19.4019 4.39297 19.5697 4.41806 19.7746 4.46985C20.1853 4.57359 20.7361 4.782 21.2877 5.20007C22.3573 6.01068 23.5833 7.72977 23.5833 11.4795H25.0833ZM19.1482 3.61988C19.0542 4.36397 19.0544 4.364 19.0547 4.36404C19.0548 4.36405 19.0551 4.36409 19.0553 4.36411C19.0558 4.36417 19.0563 4.36424 19.0569 4.36432C19.0582 4.36447 19.0597 4.36466 19.0616 4.36489C19.0653 4.36534 19.0703 4.36594 19.0765 4.36666C19.0889 4.36809 19.1061 4.37003 19.1279 4.37232C19.1714 4.3769 19.233 4.3829 19.3103 4.38917C19.4645 4.4017 19.6822 4.41541 19.9426 4.42089C20.4587 4.43175 21.1631 4.4108 21.8804 4.2749C22.588 4.14082 23.3755 3.88255 23.9991 3.37059C24.6538 2.83302 25.0833 2.04946 25.0833 1H23.5833C23.5833 1.58797 23.3647 1.95061 23.0472 2.21128C22.6985 2.49757 22.1898 2.68959 21.6011 2.80112C21.0221 2.91084 20.4302 2.93082 19.9741 2.92122C19.7483 2.91647 19.5609 2.90459 19.4317 2.89409C19.3671 2.88885 19.3174 2.88398 19.2849 2.88056C19.2687 2.87885 19.2568 2.87751 19.2495 2.87667C19.2459 2.87625 19.2435 2.87595 19.2422 2.8758C19.2416 2.87573 19.2413 2.87569 19.2413 2.87569C19.2413 2.87569 19.2413 2.87569 19.2415 2.87571C19.2415 2.87572 19.2417 2.87574 19.2418 2.87575C19.2419 2.87577 19.2421 2.8758 19.1482 3.61988Z" fill="#343434"/>
</svg>
