<svg width="28" height="21" viewBox="0 0 28 21" fill="none" xmlns="http://www.w3.org/2000/svg">
<path fill-rule="evenodd" clip-rule="evenodd" d="M0 1.90909C0 0.85473 0.864554 0 1.93103 0H12.5517C13.6182 0 14.4828 0.85473 14.4828 1.90909C14.4828 2.96345 13.6182 3.81818 12.5517 3.81818H1.93103C0.864554 3.81818 0 2.96345 0 1.90909Z" fill="#53B9EA"/>
<path fill-rule="evenodd" clip-rule="evenodd" d="M0 10.5C0 9.44562 0.864554 8.59089 1.93103 8.59089H26.069C27.1354 8.59089 28 9.44562 28 10.5C28 11.5543 27.1354 12.4091 26.069 12.4091H1.93103C0.864554 12.4091 0 11.5543 0 10.5Z" fill="#53B9EA"/>
<path fill-rule="evenodd" clip-rule="evenodd" d="M0 19.0909C0 18.0365 0.864553 17.1818 1.93103 17.1818H22.2069C23.2734 17.1818 24.1379 18.0365 24.1379 19.0909C24.1379 20.1453 23.2734 21 22.2069 21H1.93103C0.864553 21 0 20.1453 0 19.0909Z" fill="#53B9EA"/>
</svg>
