<svg width="11" height="4" viewBox="0 0 11 4" fill="none" xmlns="http://www.w3.org/2000/svg">
<path d="M2.08105 3.26988C1.76371 3.26988 1.49305 3.16254 1.26905 2.94787C1.04505 2.72387 0.933047 2.44387 0.933047 2.10787C0.933047 1.76254 1.04038 1.48254 1.25505 1.26787C1.47905 1.05321 1.75438 0.945875 2.08105 0.945875C2.40771 0.945875 2.67838 1.05321 2.89305 1.26787C3.11705 1.48254 3.22905 1.76254 3.22905 2.10787C3.22905 2.44387 3.11705 2.72387 2.89305 2.94787C2.66905 3.16254 2.39838 3.26988 2.08105 3.26988ZM5.49902 3.26988C5.18168 3.26988 4.91102 3.16254 4.68702 2.94787C4.46302 2.72387 4.35102 2.44387 4.35102 2.10787C4.35102 1.76254 4.45835 1.48254 4.67302 1.26787C4.89702 1.05321 5.17235 0.945875 5.49902 0.945875C5.82568 0.945875 6.09635 1.05321 6.31102 1.26787C6.53502 1.48254 6.64702 1.76254 6.64702 2.10787C6.64702 2.44387 6.53502 2.72387 6.31102 2.94787C6.08702 3.16254 5.81635 3.26988 5.49902 3.26988ZM8.91698 3.26988C8.59965 3.26988 8.32898 3.16254 8.10498 2.94787C7.88098 2.72387 7.76898 2.44387 7.76898 2.10787C7.76898 1.76254 7.87632 1.48254 8.09098 1.26787C8.31498 1.05321 8.59032 0.945875 8.91698 0.945875C9.24365 0.945875 9.51432 1.05321 9.72898 1.26787C9.95298 1.48254 10.065 1.76254 10.065 2.10787C10.065 2.44387 9.95298 2.72387 9.72898 2.94787C9.50498 3.16254 9.23432 3.26988 8.91698 3.26988Z" fill="#A9A9A9"/>
</svg>
