<svg width="23" height="23" viewBox="0 0 23 23" fill="none" xmlns="http://www.w3.org/2000/svg">
<path d="M12.4647 5.80749L11.4999 5.82026C9.12761 5.88147 6.7593 5.59082 4.47217 4.95776V6.29304C6.77067 6.86157 9.13236 7.13424 11.4999 7.10443H11.8897C11.9255 6.8298 12.0099 6.56372 12.1388 6.3186L12.4647 5.80749Z" fill="#343434"/>
<path d="M18.419 9.83892C16.1639 10.4439 13.834 10.7235 11.4998 10.6695C9.12712 10.73 6.75859 10.4372 4.47206 9.80059V11.1295C6.77003 11.7015 9.13191 11.9764 11.4998 11.9473C14.0554 11.9473 17.844 11.6406 19.8054 10.6695V13.9725C19.5946 14.522 16.5726 15.5378 11.4998 15.5378C9.12584 15.5901 6.75729 15.2886 4.47206 14.6434V15.9723C6.77003 16.5443 9.13191 16.8192 11.4998 16.79C14.0554 16.79 17.844 16.4834 19.8054 15.5123V18.7706C19.5818 19.32 16.5598 20.3359 11.4998 20.3359C6.43984 20.3359 3.38595 19.2945 3.19428 18.7642V4.35726C3.38595 3.83337 6.38873 2.78559 11.4998 2.78559C12.4582 2.78559 13.3462 2.82392 14.1512 2.88781L14.854 1.67392C13.6657 1.55892 12.4901 1.50781 11.4998 1.50781C7.94123 1.50781 1.9165 2.10198 1.9165 4.33809V18.7642C1.9165 20.9939 7.94123 21.5945 11.4998 21.5945C15.0584 21.5945 21.0832 21.0003 21.0832 18.7642V9.81976L18.419 9.83892Z" fill="#343434"/>
<path d="M17.1543 0.728269L13.4999 7.02771C13.4148 7.15251 13.366 7.2984 13.3588 7.44924C13.3517 7.60007 13.3864 7.74995 13.4591 7.88226C13.5319 8.01457 13.6399 8.12415 13.7711 8.19885C13.9024 8.27356 14.0517 8.31046 14.2026 8.30549H21.5179C21.6688 8.31046 21.8182 8.27356 21.9494 8.19885C22.0806 8.12415 22.1886 8.01457 22.2614 7.88226C22.3342 7.74995 22.3689 7.60007 22.3617 7.44924C22.3545 7.2984 22.3057 7.15251 22.2207 7.02771L18.5662 0.728269C18.4942 0.604998 18.3911 0.502748 18.2672 0.43169C18.1434 0.360631 18.0031 0.323242 17.8603 0.323242C17.7175 0.323242 17.5772 0.360631 17.4533 0.43169C17.3295 0.502748 17.2264 0.604998 17.1543 0.728269Z" fill="#343434"/>
</svg>
