<svg width="23" height="23" viewBox="0 0 23 23" fill="none" xmlns="http://www.w3.org/2000/svg">
<path d="M9.37894 9.462C8.52448 9.462 7.68921 9.20854 6.97884 8.73369C6.26846 8.25884 5.7149 7.58394 5.3882 6.7944C5.06151 6.00485 4.97635 5.13614 5.14352 4.29818C5.31068 3.46023 5.72265 2.69069 6.3273 2.08693C6.93194 1.48318 7.70209 1.07235 8.54029 0.906429C9.3785 0.740506 10.2471 0.826947 11.0361 1.15481C11.8252 1.48268 12.4993 2.03724 12.9731 2.74831C13.4469 3.45939 13.6991 4.29503 13.6978 5.1495C13.6945 6.29331 13.2381 7.38922 12.4287 8.19742C11.6193 9.00562 10.5228 9.46031 9.37894 9.462ZM9.37894 2.10839C8.77747 2.10839 8.1895 2.28675 7.68939 2.62091C7.18929 2.95507 6.7995 3.43003 6.56932 3.98572C6.33915 4.54141 6.27893 5.15287 6.39627 5.74279C6.51361 6.33271 6.80325 6.87458 7.22855 7.29989C7.65386 7.7252 8.19574 8.01483 8.78565 8.13218C9.37557 8.24952 9.98704 8.18929 10.5427 7.95912C11.0984 7.72894 11.5734 7.33916 11.9075 6.83905C12.2417 6.33894 12.4201 5.75097 12.4201 5.1495C12.4201 4.34295 12.0997 3.56943 11.5293 2.99911C10.959 2.42879 10.1855 2.10839 9.37894 2.10839Z" fill="#343434"/>
<path d="M10.4906 20.2401C10.351 20.1004 10.2433 19.9321 10.1749 19.7468C10.1065 19.5615 10.0791 19.3636 10.0945 19.1667H2.55561V15.4739C3.46149 14.5073 4.56026 13.7417 5.78078 13.2267C7.0013 12.7116 8.31638 12.4586 9.64089 12.484H10.1009C10.0716 12.2697 10.092 12.0517 10.1607 11.8467C10.2294 11.6417 10.3445 11.4553 10.497 11.302L10.5737 11.2317C10.2734 11.2317 9.93478 11.1934 9.64089 11.1934C8.08226 11.1564 6.53488 11.4662 5.11064 12.1004C3.6864 12.7346 2.42089 13.6774 1.40561 14.8606C1.32267 14.9712 1.27783 15.1057 1.27783 15.244V19.1667C1.27783 19.5056 1.41245 19.8306 1.65208 20.0703C1.89171 20.3099 2.21672 20.4445 2.55561 20.4445H10.6695L10.4906 20.2401Z" fill="#343434"/>
<path d="M17.167 10.4075C17.1986 10.401 17.2312 10.401 17.2628 10.4075C17.2311 10.4017 17.1987 10.4017 17.167 10.4075Z" fill="#343434"/>
<path d="M21.5178 14.8988L20.2401 14.5091C20.1487 14.1965 20.0245 13.8946 19.8695 13.6082L20.5084 12.4199C20.5292 12.3724 20.5342 12.3194 20.5227 12.2688C20.5112 12.2182 20.4838 12.1727 20.4445 12.1388L19.5181 11.2124C19.4831 11.1745 19.4363 11.1494 19.3853 11.1413C19.3343 11.1332 19.2821 11.1425 19.237 11.1677L18.0614 11.8066C17.772 11.6438 17.4656 11.5131 17.1478 11.4168L16.7581 10.1391C16.7416 10.092 16.7102 10.0516 16.6687 10.024C16.6272 9.99632 16.5779 9.9829 16.5281 9.98572H15.2184C15.1681 9.98514 15.119 10.0011 15.0786 10.0311C15.0382 10.0611 15.0088 10.1035 14.9948 10.1518L14.6051 11.4296C14.2851 11.5227 13.9765 11.6513 13.6851 11.8129L12.5223 11.1741C12.4782 11.1494 12.427 11.1403 12.3771 11.1485C12.3272 11.1566 12.2816 11.1814 12.2476 11.2188L11.302 12.1388C11.2669 12.1757 11.2444 12.2227 11.2375 12.2731C11.2306 12.3236 11.2398 12.3749 11.2637 12.4199L11.9026 13.5827C11.7336 13.8706 11.5985 14.1772 11.5001 14.4963L10.2223 14.8796C10.1739 14.8936 10.1315 14.923 10.1015 14.9634C10.0715 15.0038 10.0556 15.0529 10.0562 15.1032V16.4129C10.0599 16.4591 10.078 16.5029 10.1077 16.5384C10.1375 16.5739 10.1775 16.5992 10.2223 16.611L11.5001 17.0007C11.5945 17.3141 11.723 17.6162 11.8834 17.9016L11.2445 19.1218C11.2201 19.1656 11.2107 19.216 11.2176 19.2656C11.2245 19.3152 11.2474 19.3612 11.2828 19.3966L12.2092 20.3229C12.2454 20.359 12.2921 20.3828 12.3425 20.3908C12.393 20.3989 12.4447 20.3907 12.4903 20.3677L13.6851 19.7288C13.9694 19.8817 14.2692 20.0038 14.5795 20.0929L14.9628 21.3707C14.9786 21.418 15.0084 21.4593 15.0484 21.489C15.0885 21.5188 15.1366 21.5354 15.1864 21.5368H16.4962C16.5462 21.5364 16.5949 21.5201 16.635 21.4902C16.6752 21.4604 16.7049 21.4185 16.7198 21.3707L17.1095 20.061C17.4157 19.9718 17.7113 19.8497 17.9912 19.6968L19.1987 20.3357C19.2431 20.3593 19.2939 20.3677 19.3436 20.3596C19.3932 20.3516 19.4388 20.3274 19.4734 20.291L20.4445 19.4221C20.4706 19.3846 20.4846 19.34 20.4846 19.2943C20.4846 19.2486 20.4706 19.204 20.4445 19.1666L19.8056 17.9654C19.9607 17.6836 20.0849 17.3859 20.1762 17.0774L21.4539 16.6877C21.5023 16.6737 21.5447 16.6443 21.5747 16.6039C21.6047 16.5635 21.6206 16.5144 21.6201 16.4641V15.1224C21.6259 15.0793 21.6194 15.0354 21.6013 14.9958C21.5832 14.9562 21.5543 14.9226 21.5178 14.8988ZM15.8764 17.8888C15.4539 17.89 15.0404 17.7658 14.6885 17.5318C14.3366 17.2978 14.0621 16.9646 13.8998 16.5744C13.7375 16.1843 13.6947 15.7547 13.7769 15.3402C13.859 14.9256 14.0624 14.5448 14.3612 14.246C14.66 13.9472 15.0408 13.7438 15.4553 13.6617C15.8699 13.5796 16.2994 13.6224 16.6896 13.7847C17.0798 13.947 17.413 14.2215 17.647 14.5734C17.881 14.9252 18.0052 15.3387 18.0039 15.7613C18.0023 16.325 17.7776 16.8652 17.379 17.2638C16.9803 17.6624 16.4402 17.8871 15.8764 17.8888Z" fill="#343434"/>
</svg>
