<svg width="16" height="16" viewBox="0 0 16 16" fill="none" xmlns="http://www.w3.org/2000/svg">
<path d="M12.2135 2.84003C11.2024 2.00991 9.96848 1.4973 8.66683 1.3667V2.71337C9.64016 2.83337 10.5268 3.22003 11.2668 3.79337L12.2135 2.84003ZM13.2868 7.33337H14.6335C14.5002 5.99337 13.9668 4.77337 13.1602 3.7867L12.2068 4.73337C12.7949 5.48667 13.1681 6.38511 13.2868 7.33337ZM12.2068 11.2667L13.1602 12.22C13.9892 11.2083 14.5016 9.9747 14.6335 8.67337H13.2868C13.1668 9.61926 12.7937 10.5152 12.2068 11.2667ZM8.66683 13.2867V14.6334C10.0068 14.5 11.2268 13.9667 12.2135 13.16L11.2602 12.2067C10.5268 12.78 9.64016 13.1667 8.66683 13.2867ZM8.66683 8.00003V4.6667H7.3335V8.00003H4.66683L8.00016 11.3334L11.3335 8.00003H8.66683ZM7.3335 13.2867V14.6334C3.96683 14.3 1.3335 11.46 1.3335 8.00003C1.3335 4.54003 3.96683 1.70003 7.3335 1.3667V2.71337C4.70016 3.04003 2.66683 5.28003 2.66683 8.00003C2.66683 10.72 4.70016 12.96 7.3335 13.2867Z" fill="#53B9EA"/>
</svg>
