<svg width="6" height="10" viewBox="0 0 6 10" fill="none" xmlns="http://www.w3.org/2000/svg">
<path d="M0.165 5.53989C0.0594806 5.4345 0.000131289 5.29152 0 5.14239V4.85739C0.001728 4.70858 0.060837 4.56618 0.165 4.45989L4.02 0.612389C4.09041 0.541397 4.18626 0.501465 4.28625 0.501465C4.38624 0.501465 4.48209 0.541397 4.5525 0.612389L5.085 1.14489C5.15555 1.21401 5.1953 1.30862 5.1953 1.40739C5.1953 1.50616 5.15555 1.60077 5.085 1.66989L1.7475 4.99989L5.085 8.32989C5.15599 8.4003 5.19592 8.49615 5.19592 8.59614C5.19592 8.69613 5.15599 8.79198 5.085 8.86239L4.5525 9.38739C4.48209 9.45838 4.38624 9.49831 4.28625 9.49831C4.18626 9.49831 4.09041 9.45838 4.02 9.38739L0.165 5.53989Z" fill="#A9A9A9"/>
</svg>
