<svg width="28" height="21" viewBox="0 0 28 21" fill="none" xmlns="http://www.w3.org/2000/svg">
<path d="M20.2551 19.9862C19.8313 19.9862 19.4878 19.6367 19.4878 19.2055C19.4878 16.149 17.0441 13.6624 14.0404 13.6624H12.8895C9.88582 13.6624 7.44212 16.149 7.44212 19.2055C7.44212 19.6367 7.09862 19.9862 6.67487 19.9862C6.25113 19.9862 5.90763 19.6367 5.90763 19.2055C5.90763 15.2881 9.03971 12.101 12.8895 12.101H14.0404C17.8902 12.101 21.0223 15.2881 21.0223 19.2055C21.0223 19.6367 20.6788 19.9862 20.2551 19.9862ZM18.5671 5.2698C18.5671 2.36403 16.2439 0 13.3882 0C10.5326 0 8.20936 2.36403 8.20936 5.2698C8.20936 8.17557 10.5326 10.5396 13.3882 10.5396C16.2439 10.5396 18.5671 8.17557 18.5671 5.2698ZM17.0326 5.2698C17.0326 7.3146 15.3978 8.97818 13.3882 8.97818C11.3787 8.97818 9.74384 7.3146 9.74384 5.2698C9.74384 3.225 11.3787 1.56142 13.3882 1.56142C15.3978 1.56142 17.0326 3.225 17.0326 5.2698Z" fill="#343434"/>
<path d="M26.6812 20.2222C26.3824 20.2222 26.1402 19.9758 26.1402 19.6717C26.1402 17.5165 24.417 15.7631 22.299 15.7631H21.4875C19.3694 15.7631 17.6463 17.5165 17.6463 19.6717C17.6463 19.9758 17.404 20.2222 17.1052 20.2222C16.8064 20.2222 16.5642 19.9758 16.5642 19.6717C16.5642 16.9094 18.7728 14.662 21.4875 14.662H22.299C25.0137 14.662 27.2222 16.9094 27.2222 19.6717C27.2222 19.9758 26.98 20.2222 26.6812 20.2222ZM25.491 9.84506C25.491 7.79608 23.8528 6.1291 21.8391 6.1291C19.8255 6.1291 18.1873 7.79608 18.1873 9.84506C18.1873 11.894 19.8255 13.561 21.8391 13.561C23.8528 13.561 25.491 11.894 25.491 9.84506ZM24.409 9.84506C24.409 11.2869 23.2561 12.46 21.8391 12.46C20.4221 12.46 19.2693 11.2869 19.2693 9.84506C19.2693 8.40318 20.4221 7.23012 21.8391 7.23012C23.2561 7.23012 24.409 8.40318 24.409 9.84506Z" fill="#343434"/>
<path d="M10.117 19.9862C9.81819 19.9862 9.57598 19.7397 9.57598 19.4357C9.57598 17.2805 7.85282 15.527 5.73477 15.527H4.92324C2.80519 15.527 1.08203 17.2805 1.08203 19.4357C1.08203 19.7397 0.839819 19.9862 0.541016 19.9862C0.242213 19.9862 0 19.7397 0 19.4357C0 16.6733 2.20856 14.426 4.92324 14.426H5.73477C8.44945 14.426 10.658 16.6733 10.658 19.4357C10.658 19.7397 10.4158 19.9862 10.117 19.9862ZM8.92676 9.60903C8.92676 7.56005 7.28854 5.89307 5.2749 5.89307C3.26127 5.89307 1.62305 7.56005 1.62305 9.60903C1.62305 11.658 3.26127 13.325 5.2749 13.325C7.28854 13.325 8.92676 11.658 8.92676 9.60903ZM7.84473 9.60903C7.84473 11.0509 6.69191 12.224 5.2749 12.224C3.8579 12.224 2.70508 11.0509 2.70508 9.60903C2.70508 8.16715 3.8579 6.99409 5.2749 6.99409C6.69191 6.99409 7.84473 8.16715 7.84473 9.60903Z" fill="#343434"/>
</svg>
