<svg width="23" height="24" viewBox="0 0 23 24" fill="none" xmlns="http://www.w3.org/2000/svg">
<path d="M9.94011 6.4683C9.65259 6.17013 9.1778 6.16149 8.87963 6.44901C8.58146 6.73653 8.57283 7.21133 8.86035 7.5095L9.94011 6.4683ZM11.5002 9.16668L10.9603 9.68728C11.1017 9.83387 11.2966 9.91668 11.5002 9.91668C11.7039 9.91668 11.8988 9.83387 12.0401 9.68728L11.5002 9.16668ZM14.1401 7.5095C14.4276 7.21133 14.419 6.73653 14.1208 6.44901C13.8227 6.16149 13.3479 6.17013 13.0603 6.4683L14.1401 7.5095ZM11.5 3.17778H10.75V3.17781L11.5 3.17778ZM13.6 1V0.25V1ZM19.9 1V0.25V1ZM21.25 9.16667C21.25 9.58088 21.5858 9.91667 22 9.91667C22.4142 9.91667 22.75 9.58088 22.75 9.16667H21.25ZM13.0603 17.3095C13.3479 17.6077 13.8227 17.6163 14.1208 17.3288C14.419 17.0413 14.4276 16.5665 14.1401 16.2683L13.0603 17.3095ZM11.5002 14.6111L12.0401 14.0905C11.8988 13.9439 11.7039 13.8611 11.5002 13.8611C11.2966 13.8611 11.1017 13.9439 10.9603 14.0905L11.5002 14.6111ZM8.86035 16.2683C8.57283 16.5665 8.58146 17.0413 8.87963 17.3288C9.1778 17.6163 9.65259 17.6077 9.94011 17.3095L8.86035 16.2683ZM11.5 20.6L10.75 20.6V20.6H11.5ZM1 20.6H0.25H1ZM1.75 14.6111C1.75 14.1969 1.41421 13.8611 1 13.8611C0.585786 13.8611 0.25 14.1969 0.25 14.6111H1.75ZM16.7649 10.2317C17.0524 9.93354 17.0438 9.45875 16.7456 9.17123C16.4474 8.88371 15.9726 8.89234 15.6851 9.19051L16.7649 10.2317ZM14.125 11.8889L13.5851 11.3683C13.305 11.6588 13.305 12.119 13.5851 12.4095L14.125 11.8889ZM15.6851 14.5873C15.9726 14.8854 16.4474 14.8941 16.7456 14.6066C17.0438 14.319 17.0524 13.8442 16.7649 13.5461L15.6851 14.5873ZM19.9 11.8889V12.6389V11.8889ZM14.125 22.0278C13.7108 22.0278 13.375 22.3636 13.375 22.7778C13.375 23.192 13.7108 23.5278 14.125 23.5278V22.0278ZM6.23506 13.5461C5.94754 13.8442 5.95617 14.319 6.25434 14.6066C6.55251 14.8941 7.02731 14.8854 7.31483 14.5873L6.23506 13.5461ZM8.87495 11.8889L9.41483 12.4095C9.69499 12.119 9.69499 11.6588 9.41483 11.3683L8.87495 11.8889ZM7.31483 9.19051C7.02731 8.89234 6.55251 8.88371 6.25434 9.17123C5.95617 9.45875 5.94754 9.93354 6.23506 10.2317L7.31483 9.19051ZM3.1 11.8889V12.6389H3.1L3.1 11.8889ZM1 9.71111H0.25H1ZM3.1 1V0.25V1ZM8.875 1.75C9.28922 1.75 9.625 1.41421 9.625 1C9.625 0.585786 9.28922 0.25 8.875 0.25V1.75ZM8.86035 7.5095L10.9603 9.68728L12.0401 8.64608L9.94011 6.4683L8.86035 7.5095ZM12.0401 9.68728L14.1401 7.5095L13.0603 6.4683L10.9603 8.64608L12.0401 9.68728ZM12.2502 9.16665L12.25 3.17775L10.75 3.17781L10.7502 9.16671L12.2502 9.16665ZM12.25 3.17778C12.25 2.79049 12.3986 2.4243 12.655 2.15846L11.5752 1.11725C11.0439 1.66824 10.75 2.40991 10.75 3.17778H12.25ZM12.655 2.15846C12.9104 1.89355 13.2509 1.75 13.6 1.75V0.25C12.8352 0.25 12.1074 0.565342 11.5752 1.11725L12.655 2.15846ZM13.6 1.75H19.9V0.25H13.6V1.75ZM19.9 1.75C20.2491 1.75 20.5896 1.89354 20.845 2.15846L21.9248 1.11725C21.3926 0.565343 20.6649 0.25 19.9 0.25V1.75ZM20.845 2.15846C21.1014 2.4243 21.25 2.79049 21.25 3.17778H22.75C22.75 2.40991 22.4561 1.66824 21.9248 1.11725L20.845 2.15846ZM21.25 3.17778V9.16667H22.75V3.17778H21.25ZM14.1401 16.2683L12.0401 14.0905L10.9603 15.1317L13.0603 17.3095L14.1401 16.2683ZM10.9603 14.0905L8.86035 16.2683L9.94011 17.3095L12.0401 15.1317L10.9603 14.0905ZM10.7502 14.6111L10.75 20.6L12.25 20.6L12.2502 14.6111L10.7502 14.6111ZM10.75 20.6C10.75 20.9873 10.6014 21.3535 10.345 21.6193L11.4248 22.6605C11.9561 22.1095 12.25 21.3679 12.25 20.6H10.75ZM10.345 21.6193C10.0896 21.8842 9.74906 22.0278 9.4 22.0278V23.5278C10.1649 23.5278 10.8926 23.2124 11.4248 22.6605L10.345 21.6193ZM9.4 22.0278H3.1V23.5278H9.4V22.0278ZM3.1 22.0278C2.75094 22.0278 2.41041 21.8842 2.15496 21.6193L1.07519 22.6605C1.60739 23.2124 2.33515 23.5278 3.1 23.5278V22.0278ZM2.15496 21.6193C1.89861 21.3535 1.75 20.9873 1.75 20.6H0.25C0.25 21.3679 0.543886 22.1095 1.07519 22.6605L2.15496 21.6193ZM1.75 20.6V14.6111H0.25V20.6H1.75ZM15.6851 9.19051L13.5851 11.3683L14.6649 12.4095L16.7649 10.2317L15.6851 9.19051ZM13.5851 12.4095L15.6851 14.5873L16.7649 13.5461L14.6649 11.3683L13.5851 12.4095ZM14.125 12.6389L19.9 12.6389V11.1389L14.125 11.1389L14.125 12.6389ZM19.9 12.6389C20.2491 12.6389 20.5896 12.7824 20.845 13.0474L21.9248 12.0061C21.3926 11.4542 20.6649 11.1389 19.9 11.1389V12.6389ZM20.845 13.0474C21.1014 13.3132 21.25 13.6794 21.25 14.0667H22.75C22.75 13.2988 22.4561 12.5571 21.9248 12.0061L20.845 13.0474ZM21.25 14.0667V20.6H22.75V14.0667H21.25ZM21.25 20.6C21.25 20.9873 21.1014 21.3535 20.845 21.6193L21.9248 22.6605C22.4561 22.1095 22.75 21.3679 22.75 20.6H21.25ZM20.845 21.6193C20.5896 21.8842 20.2491 22.0278 19.9 22.0278V23.5278C20.6649 23.5278 21.3926 23.2124 21.9248 22.6605L20.845 21.6193ZM19.9 22.0278H14.125V23.5278H19.9V22.0278ZM7.31483 14.5873L9.41483 12.4095L8.33506 11.3683L6.23506 13.5461L7.31483 14.5873ZM9.41483 11.3683L7.31483 9.19051L6.23506 10.2317L8.33506 12.4095L9.41483 11.3683ZM8.87495 11.1389L3.1 11.1389L3.1 12.6389L8.87495 12.6389L8.87495 11.1389ZM3.1 11.1389C2.75094 11.1389 2.41041 10.9953 2.15496 10.7304L1.07519 11.7716C1.60739 12.3236 2.33515 12.6389 3.1 12.6389V11.1389ZM2.15496 10.7304C1.89861 10.4646 1.75 10.0984 1.75 9.71111H0.25C0.25 10.479 0.543886 11.2207 1.07519 11.7716L2.15496 10.7304ZM1.75 9.71111V3.17778H0.25V9.71111H1.75ZM1.75 3.17778C1.75 2.79049 1.89861 2.4243 2.15496 2.15846L1.07519 1.11725C0.543886 1.66824 0.25 2.40991 0.25 3.17778H1.75ZM2.15496 2.15846C2.41041 1.89355 2.75094 1.75 3.1 1.75V0.25C2.33515 0.25 1.60739 0.565342 1.07519 1.11725L2.15496 2.15846ZM3.1 1.75H8.875V0.25H3.1V1.75Z" fill="#343434"/>
</svg>
