<svg width="16" height="16" viewBox="0 0 16 16" fill="none" xmlns="http://www.w3.org/2000/svg">
<path d="M7.50078 15.0042C11.6266 15.0159 14.9924 11.6648 15.0041 7.53391C15.0158 3.40298 11.669 0.0329259 7.54321 0.0212423C5.01799 0.0140912 2.77603 1.26382 1.4157 3.18405L2.42686 3.9086C3.00432 3.08949 3.77059 2.42193 4.66066 1.96256C5.55073 1.50319 6.53833 1.26556 7.53968 1.26982C10.9908 1.2796 13.7669 4.07493 13.7571 7.53038C13.7473 10.9858 10.9554 13.7654 7.50432 13.7556C6.50301 13.754 5.51687 13.5106 4.62945 13.0462C3.74204 12.5818 2.97953 11.9101 2.40653 11.0879L1.39128 11.8067C2.0785 12.7916 2.99244 13.5963 4.05585 14.1529C5.11925 14.7094 6.30086 15.0014 7.50078 15.0042ZM2.93459 10.4458L3.83374 9.55059L2.41492 8.12255L10.0143 8.14407L10.0178 6.89549L2.41846 6.87397L3.84534 5.454L2.95128 4.55373L0.450164 7.04383L0.021165 7.49148L0.448246 7.94156L2.93459 10.4458Z" fill="#D11149"/>
</svg>
